<?xml version="1.0" encoding="utf-8"?>
<!-- Generator: Adobe Illustrator 13.0.0, SVG Export Plug-In . SVG Version: 6.00 Build 14948)  -->
<!DOCTYPE svg PUBLIC "-//W3C//DTD SVG 1.1//EN" "http://www.w3.org/Graphics/SVG/1.1/DTD/svg11.dtd">
<svg version="1.1" id="Symbols_flat" xmlns="http://www.w3.org/2000/svg" xmlns:xlink="http://www.w3.org/1999/xlink" x="0px"
	 y="0px" width="944.36px" height="569.832px" viewBox="0 0 944.36 569.832" enable-background="new 0 0 944.36 569.832"
	 xml:space="preserve">
<polygon fill="#FFFFFF" stroke="#000000" stroke-width="2" points="1,68.74 1,65.14 1,11.14 73,11.14 73,68.74 51.4,68.74 
	51.4,39.94 22.6,39.94 22.6,68.74 "/>
<polygon fill="#FFFFFF" stroke="#000000" stroke-width="2" points="116.328,68.74 116.328,25.54 145.128,11.14 145.128,25.54 
	173.928,11.14 173.928,25.54 202.728,11.14 202.728,68.74 "/>
<g>
	<rect x="368.585" y="3.94" fill="#FFFFFF" stroke="#000000" stroke-width="2" width="72" height="64.8"/>
	<line fill="none" stroke="#000000" stroke-width="2" x1="368.585" y1="47.14" x2="440.585" y2="47.14"/>
	<line fill="none" stroke="#000000" stroke-width="2" x1="368.585" y1="25.54" x2="440.585" y2="25.54"/>
</g>
<g>
	<line fill="none" stroke="#000000" stroke-width="2" x1="480.314" y1="61.54" x2="523.514" y2="54.34"/>
	<line fill="none" stroke="#000000" stroke-width="2" x1="523.514" y1="54.34" x2="509.113" y2="68.74"/>
	<g>
		<g>
			<line fill="none" stroke="#000000" stroke-width="2" x1="509.113" y1="68.74" x2="559.514" y2="54.34"/>
			<path d="M571.119,51.024c-4.882,3.587-10.67,8.98-13.823,13.84l0.694-10.089l-5.919-8.199
				C557.316,49.037,565.08,50.559,571.119,51.024z"/>
		</g>
	</g>
</g>
<g>
	<line fill="none" stroke="#000000" x1="599.242" y1="65.847" x2="671.242" y2="65.847"/>
	<line fill="none" stroke="#000000" x1="599.242" y1="44.247" x2="671.242" y2="44.247"/>
	<text transform="matrix(1 0 0 1 606.4434 37.0464)" font-family="'ArialMT'" font-size="18">Max. = </text>
	<text transform="matrix(1 0 0 1 610.042 62.2456)" font-family="'ArialMT'" font-size="20">FIFO</text>
</g>
<text transform="matrix(1 0 0 1 852.2695 475.5396)" font-family="'ArialMT'" font-size="14">Small Text</text>
<text transform="matrix(1 0 0 1 833.9844 508.7446)" font-family="'ArialMT'" font-size="18">Medium Text</text>
<text transform="matrix(1 0 0 1 829.6338 546.4888)" font-family="'ArialMT'" font-size="24">Large Text</text>
<g>
	<line fill="none" stroke="#000000" x1="714.571" y1="44.247" x2="786.571" y2="44.247"/>
	<line fill="none" stroke="#000000" x1="714.571" y1="19.047" x2="786.571" y2="19.047"/>
	<text transform="matrix(1 0 0 1 721.7715 15.4468)" font-family="'ArialMT'" font-size="18">Max. = </text>
	<text transform="matrix(1 0 0 1 725.3711 62.2456)" font-family="'ArialMT'" font-size="20">FIFO</text>
	<rect x="718.171" y="22.647" stroke="#000000" width="18" height="18"/>
	<circle fill="none" stroke="#000000" cx="752.371" cy="31.647" r="9"/>
	<polygon fill="#0000FF" stroke="#000000" points="762.186,22.647 772.578,40.647 782.971,22.647 	"/>
</g>
<g>
	<circle fill="#FFFFFF" stroke="#000000" stroke-width="2" cx="856.9" cy="47.14" r="9"/>
	<circle fill="#FFFFFF" stroke="#000000" stroke-width="2" cx="880.301" cy="59.739" r="9"/>
	<path fill="none" stroke="#000000" stroke-width="2" d="M882.101,51.248c0-3.98-7.2-10.8-18-7.2"/>
	<g>
		<path fill="none" stroke="#000000" stroke-width="2" d="M853.301,39.94c0-5.969,17.712-10.8,39.6-10.8"/>
		<path fill="none" stroke="#000000" stroke-width="2" d="M892.9,29.14c3.979,0,7.199,3.221,7.199,7.2"/>
	</g>
	<g>
		<path fill="none" stroke="#000000" stroke-width="2" d="M889.301,57.94c0-5.969,9.661-10.8,21.6-10.8"/>
		<path fill="none" stroke="#000000" stroke-width="2" d="M910.901,47.14c3.979,0,7.199,3.221,7.199,7.2"/>
	</g>
</g>
<g>
	<polygon fill="#FFFFFF" stroke="#000000" points="16.215,162.587 37,126.587 57.785,162.587 	"/>
	<text transform="matrix(1 0 0 1 32.3389 158.186)" fill="#FF0000" font-family="'TimesNewRomanPSMT'" font-size="28">I</text>
</g>
<polygon fill="none" stroke="#FF0000" points="112.857,166.772 120.058,159.573 109.257,152.373 123.657,145.173 109.257,134.373 
	123.657,130.772 112.857,119.973 123.657,123.573 127.257,112.772 134.457,123.573 148.857,112.772 152.457,123.573 
	163.257,112.772 170.457,123.573 184.857,112.772 192.058,123.573 206.457,116.373 199.257,127.173 206.457,137.973 
	199.257,141.573 206.457,145.173 192.058,152.373 195.657,163.173 184.857,152.373 177.657,166.772 174.058,155.973 
	163.257,166.772 159.657,155.973 148.857,166.772 145.257,159.573 134.457,166.772 130.857,159.573 "/>
<g>
	<line fill="none" stroke="#000000" stroke-width="2" x1="762.143" y1="403.54" x2="762.143" y2="374.74"/>
	<line fill="none" stroke="#000000" stroke-width="2" x1="762.143" y1="374.74" x2="747.743" y2="374.74"/>
	<line fill="none" stroke="#000000" stroke-width="2" x1="747.743" y1="374.74" x2="740.543" y2="345.939"/>
	<line fill="none" stroke="#000000" stroke-width="2" x1="762.143" y1="374.74" x2="776.543" y2="374.74"/>
	<line fill="none" stroke="#000000" stroke-width="2" x1="776.543" y1="374.74" x2="783.743" y2="345.939"/>
	<line fill="none" stroke="#000000" stroke-width="2" x1="754.943" y1="403.54" x2="769.343" y2="403.54"/>
</g>
<g>
	<line fill="none" stroke="#000000" x1="242.714" y1="166.772" x2="314.714" y2="166.772"/>
	<line fill="none" stroke="#000000" x1="242.714" y1="137.973" x2="314.714" y2="137.973"/>
	<text transform="matrix(1 0 0 1 253.5137 159.5718)" font-family="'ArialMT'" font-size="20">XOXO</text>
</g>
<g>
	<g>
		<line fill="none" stroke="#000000" stroke-width="2" x1="367.171" y1="137.973" x2="431.972" y2="166.772"/>
		<path d="M443.002,171.675c-6.046-0.381-13.946,0.042-19.483,1.748l7.005-7.293l0.719-10.087
			C433.688,161.294,438.667,167.443,443.002,171.675z"/>
	</g>
</g>
<g>
	<g>
		<g>
			<g id="XMLID_1_">
				<g>
					<path fill="#FFFFFF" d="M538.43,116.37v39.6c0,5.97-8.05,10.8-18,10.8s-18-4.83-18-10.8v-39.6c0-5.97,8.05-10.8,18-10.8
						S538.43,110.4,538.43,116.37z"/>
				</g>
				<g>
					<line fill="none" stroke="#000000" x1="502.43" y1="155.97" x2="502.43" y2="116.37"/>
					<line fill="none" stroke="#000000" x1="538.43" y1="155.97" x2="538.43" y2="116.37"/>
					<path fill="none" stroke="#000000" d="M502.43,155.97c0,5.97,8.05,10.8,18,10.8"/>
					<path fill="none" stroke="#000000" d="M538.43,155.97c0,5.97-8.05,10.8-18,10.8"/>
					<path fill="none" stroke="#000000" d="M502.43,116.37c0-5.97,8.05-10.8,18-10.8"/>
					<path fill="none" stroke="#000000" d="M538.43,116.37c0-5.97-8.05-10.8-18-10.8"/>
				</g>
			</g>
		</g>
	</g>
	<g>
		<path fill="none" stroke="#000000" d="M502.429,116.375c0,5.97,8.051,10.8,18,10.8"/>
		<path fill="none" stroke="#000000" d="M538.429,116.375c0,5.97-8.051,10.8-18,10.8"/>
	</g>
</g>
<g>
	<circle fill="#FFFFFF" stroke="#000000" stroke-width="2" cx="641.286" cy="148.773" r="10.8"/>
	<g>
		<path fill="none" stroke="#000000" stroke-width="2" d="M623.286,148.772c0,9.949,8.051,18,18,18"/>
		<path fill="none" stroke="#000000" stroke-width="2" d="M659.286,148.772c0,9.949-8.051,18-18,18"/>
	</g>
</g>
<g>
	<rect x="744.608" y="130.772" fill="#FFFFFF" stroke="#000000" width="36" height="36"/>
	<text transform="matrix(1 0 0 1 749.9453 155.0654)" font-family="'TimesNewRomanPSMT'" font-size="24">IN</text>
	<path fill="none" stroke="#000000" d="M743.677,124.919c0,2.633,9.668,3.6,36,3.6"/>
	<path fill="none" stroke="#000000" d="M743.677,117.719c0,5.267,9.668,7.2,36,7.2"/>
	<path fill="none" stroke="#000000" d="M743.677,117.719c0,2.633,9.668,3.6,36,3.6"/>
</g>
<g>
	<rect x="829" y="152.373" fill="#FFFFFF" stroke="#000000" width="36" height="14.4"/>
	<rect x="829" y="137.973" fill="#FFFFFF" stroke="#000000" width="36" height="14.4"/>
	<rect x="865" y="152.373" fill="#FFFFFF" stroke="#000000" width="14.4" height="14.4"/>
	<rect x="865" y="137.973" fill="#FFFFFF" stroke="#000000" width="14.4" height="14.4"/>
	<rect x="879.4" y="152.373" fill="#FFFFFF" stroke="#000000" width="14.399" height="14.4"/>
	<rect x="879.4" y="137.973" fill="#FFFFFF" stroke="#000000" width="14.399" height="14.4"/>
	<rect x="893.799" y="152.373" fill="#FFFFFF" stroke="#000000" width="14.4" height="14.4"/>
	<rect x="893.799" y="137.973" fill="#FFFFFF" stroke="#000000" width="14.4" height="14.4"/>
	<rect x="908.199" y="152.373" fill="#FFFFFF" stroke="#000000" width="14.4" height="14.4"/>
	<rect x="908.199" y="137.973" fill="#FFFFFF" stroke="#000000" width="14.4" height="14.4"/>
	<rect x="922.6" y="152.373" fill="#FFFFFF" stroke="#000000" width="14.4" height="14.4"/>
	<rect x="922.6" y="137.973" fill="#FFFFFF" stroke="#000000" width="14.4" height="14.4"/>
	<rect x="865" y="123.572" fill="#FFFFFF" stroke="#000000" width="72" height="14.4"/>
	<text transform="matrix(1 0 0 1 883 134.3735)" font-family="'ArialMT'" font-size="12">Pitch</text>
</g>
<g>
	<rect x="1" y="245.972" fill="#FFFFFF" stroke="#000000" stroke-width="2" width="72" height="36"/>
	<rect x="1" y="224.372" fill="#FFFFFF" stroke="#000000" stroke-width="2" width="72" height="21.6"/>
</g>
<rect x="242.714" y="11.14" fill="#FFFFFF" stroke="#000000" stroke-width="2" width="72" height="57.602"/>
<g>
	<rect x="121.857" y="245.972" fill="#FFFFFF" stroke="#000000" stroke-width="2" width="72" height="36"/>
	<rect x="121.857" y="224.372" fill="#FFFFFF" stroke="#000000" stroke-width="2" width="72" height="21.6"/>
	<line fill="none" stroke="#B3B3B3" stroke-width="2" x1="121.857" y1="281.972" x2="136.257" y2="245.972"/>
	<line fill="none" stroke="#B3B3B3" stroke-width="2" x1="179.457" y1="281.972" x2="193.857" y2="245.972"/>
	<line fill="none" stroke="#B3B3B3" stroke-width="2" x1="165.057" y1="281.972" x2="179.458" y2="245.972"/>
	<line fill="none" stroke="#B3B3B3" stroke-width="2" x1="150.657" y1="281.972" x2="165.057" y2="245.972"/>
	<line fill="none" stroke="#B3B3B3" stroke-width="2" x1="136.257" y1="281.972" x2="150.658" y2="245.972"/>
</g>
<g>
	<rect x="370.771" y="231.573" fill="#FFFFFF" stroke="#000000" width="57.6" height="50.399"/>
	<rect x="399.571" y="231.573" fill="#FFFFFF" stroke="#000000" width="28.8" height="28.8"/>
	<text transform="matrix(1 0 0 1 406.7715 253.1729)" stroke="#000000" font-family="'ArialMT'" font-size="18">P</text>
	<line fill="none" stroke="#000000" stroke-dasharray="2" x1="428.371" y1="245.973" x2="449.972" y2="245.973"/>
	<line fill="none" stroke="#000000" stroke-dasharray="2" x1="370.771" y1="245.973" x2="349.171" y2="245.973"/>
	<g>
		<g>
			<line fill="none" stroke="#000000" stroke-dasharray="2" x1="349.171" y1="245.973" x2="349.171" y2="260.373"/>
			<path d="M349.171,266.408c-1.054-2.84-2.852-6.363-4.755-8.547l4.755,1.72l4.755-1.72
				C352.022,260.044,350.224,263.568,349.171,266.408z"/>
		</g>
	</g>
</g>
<g>
	<rect x="491.629" y="231.573" fill="#FFFFFF" stroke="#000000" width="57.6" height="50.399"/>
	<rect x="520.429" y="231.573" fill="#FFFFFF" stroke="#000000" width="28.8" height="28.8"/>
	<text transform="matrix(1 0 0 1 527.6289 253.1738)" stroke="#000000" font-family="'ArialMT'" font-size="18">W</text>
	<line fill="none" stroke="#000000" stroke-dasharray="2" x1="549.229" y1="245.973" x2="570.829" y2="245.973"/>
	<line fill="none" stroke="#000000" stroke-dasharray="2" x1="491.629" y1="245.973" x2="470.028" y2="245.973"/>
	<g>
		<g>
			<line fill="none" stroke="#000000" stroke-dasharray="2" x1="470.028" y1="245.973" x2="470.028" y2="260.373"/>
			<path d="M470.028,266.408c-1.054-2.84-2.852-6.363-4.755-8.547l4.755,1.72l4.755-1.72
				C472.88,260.044,471.082,263.568,470.028,266.408z"/>
		</g>
	</g>
</g>
<g>
	<polygon fill="#FFFFFF" stroke="#000000" points="620.094,245.972 640.879,281.972 661.664,245.972 	"/>
	<text transform="matrix(1 0 0 1 634.0859 267.5723)" stroke="#000000" font-family="'ArialMT'" font-size="18">S</text>
	<line fill="none" stroke="#000000" stroke-dasharray="2" x1="655.686" y1="260.372" x2="677.287" y2="260.372"/>
	<line fill="none" stroke="#000000" stroke-dasharray="2" x1="626.886" y1="260.372" x2="605.285" y2="260.372"/>
	<g>
		<g>
			<line fill="none" stroke="#000000" stroke-dasharray="2" x1="605.285" y1="260.372" x2="605.285" y2="274.772"/>
			<path d="M605.285,280.807c-1.054-2.84-2.852-6.363-4.755-8.547l4.755,1.72l4.755-1.72
				C608.137,274.444,606.338,277.967,605.285,280.807z"/>
		</g>
	</g>
</g>
<g>
	<g>
		<path fill="none" stroke="#000000" stroke-width="2" d="M780.143,263.972"/>
		<g>
			<path fill="none" stroke="#000000" stroke-width="2" d="M762.143,281.972c-9.94,0-18-8.06-18-18c0-9.941,8.06-18,18-18
				s18,8.059,18,18"/>
			<path d="M774.213,281.972c-5.68,2.107-12.727,5.703-17.094,9.51l3.439-9.51l-3.439-9.51
				C761.486,276.269,768.533,279.866,774.213,281.972z"/>
		</g>
		<path fill="none" stroke="#000000" stroke-width="2" d="M780.143,263.972"/>
		<path fill="none" stroke="#000000" stroke-width="2" d="M762.143,263.972"/>
		<path fill="none" stroke="#000000" stroke-width="2" d="M762.143,281.972"/>
		<path fill="none" stroke="#000000" stroke-width="2" d="M762.143,263.972"/>
	</g>
</g>
<g>
	<g>
		<line fill="none" stroke="#000000" stroke-width="10" stroke-dasharray="4" x1="857.8" y1="281.139" x2="908.2" y2="281.139"/>
		<polygon points="906.3,268.23 914.431,281.103 906.3,293.976 906.217,293.976 906.217,268.23 		"/>
	</g>
</g>
<polygon fill="#E6E6E6" stroke="#000000" points="8.041,372.103 11.641,365.868 55.289,391.068 58.888,384.833 65.959,401.385 
	48.088,403.54 51.688,397.303 "/>
<polygon fill="#E6E6E6" stroke="#000000" points="132.497,403.54 128.898,397.303 172.544,372.103 168.945,365.869 186.816,368.021 
	179.746,384.575 176.146,378.339 "/>
<g>
	<rect x="264.315" y="381.939" fill="#FFFFFF" stroke="#000000" stroke-width="2" width="28.799" height="21.602"/>
	<rect x="264.315" y="338.74" fill="#FFFFFF" stroke="#000000" stroke-width="2" width="28.799" height="21.6"/>
	<rect x="264.315" y="360.339" fill="#FFFFFF" stroke="#000000" stroke-width="2" width="28.799" height="21.6"/>
</g>
<g>
	<line fill="none" stroke="#000000" stroke-width="2" x1="506.028" y1="403.541" x2="534.829" y2="403.541"/>
	<line fill="none" stroke="#000000" stroke-width="2" x1="534.829" y1="403.541" x2="534.829" y2="338.74"/>
	<line fill="none" stroke="#000000" stroke-width="2" x1="534.829" y1="338.74" x2="506.028" y2="338.74"/>
	<line fill="none" stroke="#000000" stroke-width="2" x1="534.829" y1="360.339" x2="506.028" y2="360.339"/>
	<line fill="none" stroke="#000000" stroke-width="2" x1="534.829" y1="381.939" x2="506.028" y2="381.939"/>
</g>
<g>
	<circle fill="#FFFFFF" stroke="#000000" stroke-width="2" cx="399.571" cy="385.54" r="18"/>
	<circle fill="none" stroke="#000000" stroke-width="2" cx="399.571" cy="385.54" r="9"/>
</g>
<g>
	<rect x="598.086" y="367.539" fill="#B3B3B3" stroke="#000000" width="57.6" height="28.8"/>
	<polygon fill="#FF0000" stroke="#000000" points="655.686,374.739 666.486,374.739 670.086,381.939 684.486,381.939 
		684.486,396.338 655.686,396.338 	"/>
	<circle stroke="#000000" cx="616.085" cy="396.338" r="7.2"/>
	<circle stroke="#000000" cx="673.687" cy="396.338" r="7.2"/>
</g>
<g>
	<circle fill="#FFFFFF" stroke="#000000" stroke-width="2" cx="883.15" cy="356.74" r="10.8"/>
	<g>
		<circle fill="#FFFFFF" stroke="#000000" stroke-width="2" cx="886.75" cy="354.49" r="2.25"/>
		<circle fill="#FFFFFF" stroke="#000000" stroke-width="2" cx="879.55" cy="354.49" r="2.25"/>
	</g>
	<ellipse fill="#00FFFF" stroke="#000000" stroke-width="2" cx="883.15" cy="362.14" rx="5.4" ry="1.799"/>
	<line fill="none" stroke="#000000" stroke-width="2" x1="883" y1="367.54" x2="883" y2="396.339"/>
	<line fill="none" stroke="#000000" stroke-width="2" x1="883" y1="396.339" x2="893.8" y2="403.54"/>
	<line fill="none" stroke="#000000" stroke-width="2" x1="883" y1="396.339" x2="872.2" y2="403.54"/>
	<line fill="none" stroke="#000000" stroke-width="2" x1="865" y1="374.74" x2="872.2" y2="381.939"/>
	<line fill="none" stroke="#000000" stroke-width="2" x1="872.2" y1="381.939" x2="893.8" y2="374.74"/>
	<line fill="none" stroke="#000000" stroke-width="2" x1="893.8" y1="374.74" x2="901" y2="381.939"/>
</g>
<g>
	<polygon stroke="#000000" points="8.2,520.102 8.2,509.302 22.6,487.702 22.6,484.102 29.8,484.102 29.8,487.702 44.2,487.702 
		44.2,484.102 51.4,484.102 51.4,487.702 65.8,509.302 65.8,520.102 	"/>
	<g>
		<rect x="28" y="491.302" fill="#FFFFFF" stroke="#000000" width="3.6" height="3.6"/>
		<rect x="42.4" y="491.302" fill="#FFFFFF" stroke="#000000" width="3.6" height="3.6"/>
		<rect x="35.201" y="491.303" fill="#FFFFFF" stroke="#000000" width="3.6" height="3.6"/>
		<rect x="28" y="498.502" fill="#FFFFFF" stroke="#000000" width="3.6" height="3.6"/>
		<rect x="42.4" y="498.502" fill="#FFFFFF" stroke="#000000" width="3.6" height="3.6"/>
		<rect x="35.2" y="498.503" fill="#FFFFFF" stroke="#000000" width="3.6" height="3.6"/>
		<rect x="28" y="505.702" fill="#FFFFFF" stroke="#000000" width="3.6" height="3.6"/>
		<rect x="42.4" y="505.702" fill="#FFFFFF" stroke="#000000" width="3.6" height="3.6"/>
		<rect x="35.2" y="505.703" fill="#FFFFFF" stroke="#000000" width="3.6" height="3.6"/>
	</g>
	<path stroke="#000000" d="M4.6,491.302v-7.2c0,0,10.8-10.8,32.4-10.8s32.4,10.8,32.4,10.8v7.2l-10.8-3.6v-3.601l-21.6-3.6
		l-21.6,3.6v3.601L4.6,491.302z"/>
</g>
<g>
	<rect x="125.458" y="484.102" fill="#F3E180" stroke="#000000" width="64.8" height="36"/>
	<rect x="179.458" y="487.703" fill="#FF0000" width="7.2" height="7.199"/>
	<line fill="none" stroke="#000000" x1="129.058" y1="487.703" x2="139.857" y2="487.703"/>
	<line fill="none" stroke="#000000" x1="129.058" y1="491.302" x2="139.857" y2="491.302"/>
	<line fill="none" stroke="#000000" x1="129.058" y1="494.902" x2="139.857" y2="494.902"/>
	<line fill="none" stroke="#000000" x1="147.058" y1="502.102" x2="172.257" y2="502.102"/>
	<line fill="none" stroke="#000000" x1="147.058" y1="505.703" x2="172.257" y2="505.703"/>
	<line fill="none" stroke="#000000" x1="147.058" y1="509.302" x2="172.257" y2="509.302"/>
</g>
<g>
	<path fill="#E6E6E6" stroke="#000000" d="M264.314,469.443l28.8-7.199c5.964,0,10.799,4.836,10.799,10.801l0-0.001v21.6l-28.8,7.2"
		/>
	<path fill="#B3B3B3" stroke="#000000" d="M275.115,501.843h-21.6v-21.6c0-5.965,4.835-10.8,10.8-10.8s10.8,4.835,10.8,10.8
		L275.115,501.843z"/>
	<rect x="260.715" y="480.244" fill="#333333" stroke="#000000" width="7.2" height="3.6"/>
	<g>
		<polygon fill="#FF0000" points="285.915,450.738 282.315,451.703 282.315,487.703 285.915,486.738 		"/>
		<polygon fill="#FF0000" points="296.715,458.644 285.915,461.538 285.915,450.738 296.715,447.843 		"/>
	</g>
	<rect x="267.915" y="501.843" fill="#993300" width="7.2" height="18"/>
	<polygon fill="#CC9933" points="289.515,498.244 275.115,502.102 275.115,520.102 289.515,516.244 	"/>
</g>
<g>
	<polygon fill="#CCCCCC" stroke="#000000" points="374.372,498.502 374.372,469.703 377.972,469.703 381.572,480.502 
		381.572,487.703 377.972,498.502 	"/>
	<polygon fill="#CCCCCC" stroke="#000000" points="406.772,520.102 406.772,448.102 410.372,448.102 421.172,480.502 
		421.172,487.703 410.372,520.102 	"/>
	<line fill="none" stroke="#000000" x1="381.572" y1="484.102" x2="370.772" y2="484.102"/>
	<linearGradient id="SVGID_1_" gradientUnits="userSpaceOnUse" x1="381.5723" y1="484.103" x2="428.3721" y2="484.103">
		<stop  offset="0.6" style="stop-color:#000000"/>
		<stop  offset="1" style="stop-color:#FFFFFF"/>
	</linearGradient>
	<path fill="url(#SVGID_1_)" stroke="#000000" d="M381.572,480.502l25.2-3.6h10.8c0,0,10.8,3.599,10.8,7.199s-10.8,7.2-10.8,7.2
		h-10.8l-25.2-3.6V480.502z"/>
</g>
<g>
	<polygon fill="#CCCCCC" stroke="#000000" points="484.43,516.502 556.43,516.502 545.629,509.302 538.43,494.903 534.828,494.903 
		538.43,480.502 524.029,480.502 527.629,494.903 488.03,494.903 488.03,509.302 484.43,509.302 	"/>
	<circle fill="#FFFFFF" stroke="#000000" cx="495.95" cy="515.783" r="4.32"/>
	<circle fill="#FFFFFF" stroke="#000000" cx="534.109" cy="515.783" r="4.32"/>
	<circle fill="#FFFFFF" stroke="#000000" cx="521.148" cy="515.783" r="4.32"/>
	<circle fill="#FFFFFF" stroke="#000000" cx="508.909" cy="515.783" r="4.32"/>
	<line fill="none" stroke="#000000" x1="480.829" y1="520.102" x2="560.029" y2="520.102"/>
	<path fill="#666666" d="M537.668,474.513c1.875,2.534,0,2.692-2.551,5.582c-1.115,1.262-4.906,0-7.654,0
		c-4.172,0-6.33-5.58-10.205-5.581c-2.551-0.001-5.104-4.01-5.104-5.58c0-2.283,7.654-3.463,7.654-5.581
		c0-2.791,8.176,2.088,10.205,3.198C532.566,467.947,535.117,471.066,537.668,474.513z"/>
</g>
<g>
	<path fill="#666666" d="M621.8,509.348c1.873,1.529-0.002,1.625-2.553,3.368c-1.115,0.762-4.906,0-7.654,0
		c-4.172,0-6.33-3.366-10.205-3.368c-2.551,0-5.102-2.419-5.102-3.366c0-1.378,7.652-2.09,7.652-3.367
		c0-1.685,8.176,1.26,10.207,1.93C616.696,505.386,619.247,507.268,621.8,509.348z"/>
	<polygon fill="#00FFFF" stroke="#000000" points="621.485,512.902 686.286,512.902 686.286,502.101 671.886,502.101 
		664.687,494.902 643.085,494.902 635.886,502.101 628.687,502.101 	"/>
	<circle cx="639.485" cy="512.902" r="7.199"/>
	<circle cx="675.485" cy="512.902" r="7.199"/>
	<rect x="643.085" y="498.501" fill="#FFFFFF" stroke="#999999" width="7.201" height="3.6"/>
	<rect x="653.886" y="498.501" fill="#FFFFFF" stroke="#999999" width="10.799" height="3.6"/>
</g>
<g>
	<polygon fill="#E6E6E6" stroke="#000000" points="721.047,502.102 807.447,502.102 796.647,516.502 724.647,516.502 	"/>
	<rect x="735.446" y="480.501" fill="#B3B3B3" stroke="#000000" width="7.2" height="21.601"/>
	<rect x="757.047" y="480.502" fill="#B3B3B3" stroke="#000000" width="7.2" height="21.601"/>
	<rect x="778.646" y="480.501" fill="#B3B3B3" stroke="#000000" width="7.2" height="21.601"/>
	<path fill="#666666" d="M741.392,478.917c1.58,1.832-0.284,1.601-3.1,2.874c-1.23,0.557-4.83-0.852-7.537-1.329
		c-4.109-0.725-5.649-4.414-9.466-5.089c-2.512-0.443-4.604-3.269-4.439-4.201c0.239-1.357,7.9-0.729,8.122-1.987
		c0.292-1.659,7.832,2.66,9.716,3.673C737.054,474.129,739.238,476.426,741.392,478.917z"/>
	<path fill="#666666" d="M763.771,479.419c1.346,1.702-0.268,1.51-2.727,2.745c-1.075,0.539-4.179-0.737-6.521-1.15
		c-3.555-0.627-4.841-4.076-8.143-4.66c-2.173-0.384-3.949-3.013-3.795-3.893c0.226-1.279,6.862-0.791,7.071-1.978
		c0.275-1.564,6.759,2.398,8.379,3.325C760.071,474.974,761.936,477.105,763.771,479.419z"/>
	<path fill="#666666" d="M785.441,479.419c1.346,1.702-0.268,1.51-2.727,2.744c-1.075,0.54-4.179-0.736-6.521-1.149
		c-3.555-0.627-4.841-4.076-8.143-4.66c-2.173-0.384-3.949-3.013-3.795-3.893c0.226-1.28,6.862-0.791,7.071-1.978
		c0.275-1.564,6.759,2.398,8.379,3.325C781.742,474.974,783.606,477.105,785.441,479.419z"/>
	<polygon fill="#0000FF" stroke="#0000FF" points="717.447,516.502 721.047,512.902 731.847,516.502 742.647,512.902 
		749.847,516.502 764.247,512.902 778.647,516.502 785.847,512.902 793.047,516.502 803.847,512.902 800.247,520.102 	"/>
</g>
<text transform="matrix(1 0 0 1 6.792 89.479)" font-family="'ArialMT'" font-size="14">Work Cell</text>
<text transform="matrix(1 0 0 1 101.7998 89.479)" font-family="'ArialMT'" font-size="14">Supplier/Customer</text>
<text transform="matrix(1 0 0 1 390.6338 89.479)" font-family="'ArialMT'" font-size="14">Data</text>
<text transform="matrix(1 0 0 1 476.5918 89.479)" font-family="'ArialMT'" font-size="14">Electronic Info</text>
<text transform="matrix(1 0 0 1 363.3823 192.9399)" font-family="'ArialMT'" font-size="14">Manual Info</text>
<text transform="matrix(1 0 0 1 246.8008 192.9399)" font-family="'ArialMT'" font-size="14">Level load</text>
<text transform="matrix(1 0 0 1 860.4316 89.479)" font-family="'ArialMT'" font-size="14">Go see</text>
<text transform="matrix(1 0 0 1 8.207 192.9399)" font-family="'ArialMT'" font-size="14">Inventory</text>
<text transform="matrix(1 0 0 1 136.4541 192.9399)" font-family="'ArialMT'" font-size="14">Kaizen</text>
<text transform="matrix(1 0 0 1 505 192.9399)" font-family="'ArialMT'" font-size="14">MRP</text>
<text transform="matrix(1 0 0 1 613.5645 192.9399)" font-family="'ArialMT'" font-size="14">Operator</text>
<text transform="matrix(1 0 0 1 728.6846 192.9399)" font-family="'ArialMT'" font-size="14">Paperwork</text>
<text transform="matrix(1 0 0 1 867.4385 192.9399)" font-family="'ArialMT'" font-size="14">Pitch</text>
<text transform="matrix(1 0 0 1 11.7139 309.9399)" font-family="'ArialMT'" font-size="14">Process</text>
<text transform="matrix(1 0 0 1 108.0542 309.9399)" font-family="'ArialMT'" font-size="14">Shared Process</text>
<text transform="matrix(1 0 0 1 508.3711 547.5767)" font-family="'ArialMT'" font-size="14">Rail</text>
<text transform="matrix(1 0 0 1 641.7998 547.5767)" font-family="'ArialMT'" font-size="14">Auto</text>
<text transform="matrix(1 0 0 1 748.1328 547.5767)" font-family="'ArialMT'" font-size="14">Ship</text>
<text transform="matrix(1 0 0 1 389.7998 547.5767)" font-family="'ArialMT'" font-size="14">Plane</text>
<text transform="matrix(1 0 0 1 265.8799 547.5767)" font-family="'ArialMT'" font-size="14">Mail</text>
<text transform="matrix(1 0 0 1 145.0229 547.5767)" font-family="'ArialMT'" font-size="14">Mail</text>
<text transform="matrix(1 0 0 1 16.7588 547.5767)" font-family="'ArialMT'" font-size="14">Phone</text>
<text transform="matrix(1 0 0 1 722.833 429.9399)" font-family="'ArialMT'" font-size="14">Kanban Post</text>
<text transform="matrix(1 0 0 1 252.0347 88.3081)"><tspan x="0" y="0" font-family="'ArialMT'" font-size="14">Control</tspan><tspan x="1.555" y="16.8" font-family="'ArialMT'" font-size="14">Center</tspan></text>
<text transform="matrix(1 0 0 1 863.1523 429.9399)" font-family="'ArialMT'" font-size="14">Verbal</text>
<text transform="matrix(1 0 0 1 367.1348 301.5396)"><tspan x="0" y="0" font-family="'ArialMT'" font-size="14">Production</tspan><tspan x="9.331" y="16.8" font-family="'ArialMT'" font-size="14">Kanban</tspan></text>
<text transform="matrix(1 0 0 1 484.7793 301.5405)"><tspan x="0" y="0" font-family="'ArialMT'" font-size="14">Withdrawal</tspan><tspan x="10.486" y="16.8" font-family="'ArialMT'" font-size="14">Kanban</tspan></text>
<text transform="matrix(1 0 0 1 622.3418 301.5405)"><tspan x="0" y="0" font-family="'ArialMT'" font-size="14">Signal</tspan><tspan x="-4.676" y="16.8" font-family="'ArialMT'" font-size="14">Kanban</tspan></text>
<text transform="matrix(1 0 0 1 750.4707 309.9399)" font-family="'ArialMT'" font-size="14">Pull</text>
<text transform="matrix(1 0 0 1 867.0459 309.9399)" font-family="'ArialMT'" font-size="14">Push</text>
<text transform="matrix(1 0 0 1 125.938 421.5396)"><tspan x="0" y="0" font-family="'ArialMT'" font-size="14">Shipment /</tspan><tspan x="8.179" y="16.8" font-family="'ArialMT'" font-size="14">Delivery</tspan></text>
<text transform="matrix(1 0 0 1 624.0459 429.9399)" font-family="'ArialMT'" font-size="14">Truck</text>
<text transform="matrix(1 0 0 1 18.8174 421.5405)"><tspan x="0" y="0" font-family="'ArialMT'" font-size="14">Order /</tspan><tspan x="-12.445" y="16.8" font-family="'ArialMT'" font-size="14">Raw mat’ls</tspan></text>
<text transform="matrix(1 0 0 1 258.3555 421.5405)"><tspan x="0" y="0" font-family="'ArialMT'" font-size="14">Safety</tspan><tspan x="2.338" y="16.8" font-family="'ArialMT'" font-size="14">Stock</tspan></text>
<text transform="matrix(1 0 0 1 365.1797 421.5405)"><tspan x="0" y="0" font-family="'ArialMT'" font-size="14">Sequenced</tspan><tspan x="23.748" y="16.8" font-family="'ArialMT'" font-size="14">Pull</tspan></text>
<text transform="matrix(1 0 0 1 480.3564 429.9399)" font-family="'ArialMT'" font-size="14">Supermarket</text>
<text transform="matrix(1 0 0 1 734.8906 89.479)" font-family="'ArialMT'" font-size="14">FIFO</text>
<text transform="matrix(1 0 0 1 619.7529 89.479)" font-family="'ArialMT'" font-size="14">FIFO</text>
<text transform="matrix(1 0 0 1 292.9951 565.5386)" font-family="'TimesNewRomanPSMT'" font-size="14">© 2013 by Business Process Excellence LLC -- www.bpex.biz</text>
<polygon fill="#FFFFFF" stroke="#000000" points="245.8,281.14 289,281.14 289,266.74 276.657,259.541 245.8,259.541 "/>
<g>
	<polygon fill="#FFFFFF" stroke="#000000" points="267.399,241.54 310.6,241.54 310.6,227.139 298.257,219.94 267.399,219.94 	"/>
	<polygon fill="#FFFFFF" stroke="#000000" points="263.799,245.14 307,245.14 307,230.74 294.657,223.541 263.799,223.541 	"/>
	<polygon fill="#FFFFFF" stroke="#000000" points="260.199,248.74 303.399,248.74 303.399,234.339 291.057,227.14 260.199,227.14 	
		"/>
</g>
<text transform="matrix(1 0 0 1 250.1768 302.7397)"><tspan x="0" y="0" font-family="'ArialMT'" font-size="14">Kanban /</tspan><tspan x="-15.955" y="16.8" font-family="'ArialMT'" font-size="14">Batch Kanban</tspan></text>
</svg>
